<?xml version="1.0" encoding="us-ascii" standalone="no"?><svg xmlns="http://www.w3.org/2000/svg" xmlns:xlink="http://www.w3.org/1999/xlink" contentStyleType="text/css" height="436px" preserveAspectRatio="none" style="width:379px;height:436px;background:#FFFFFF;" version="1.1" viewBox="0 0 379 436" width="379px" zoomAndPan="magnify"><defs/><g><!--class App--><g id="elem_App"><rect codeLine="5" fill="#F1F1F1" height="66.6211" id="App" rx="2.5" ry="2.5" style="stroke:#181818;stroke-width:0.5;" width="173" x="103" y="7"/><ellipse cx="172.75" cy="23" fill="#ADD1B2" rx="11" ry="11" style="stroke:#181818;stroke-width:1.0;"/><path d="M175.5156,18.875 Q175.6719,18.6563 175.8594,18.5469 Q176.0469,18.4375 176.2656,18.4375 Q176.6406,18.4375 176.875,18.7031 Q177.1094,18.9531 177.1094,19.5625 L177.1094,21.0156 Q177.1094,21.625 176.875,21.8906 Q176.6406,22.1563 176.2656,22.1563 Q175.9219,22.1563 175.7188,21.9531 Q175.5156,21.7656 175.4063,21.25 Q175.3594,20.8906 175.1719,20.7031 Q174.8438,20.3281 174.2344,20.1094 Q173.625,19.8906 173,19.8906 Q172.2344,19.8906 171.5938,20.2188 Q170.9688,20.5469 170.4688,21.2969 Q169.9844,22.0469 169.9844,23.0781 L169.9844,24.1719 Q169.9844,25.4063 170.875,26.2344 Q171.7656,27.0469 173.3594,27.0469 Q174.2969,27.0469 174.9531,26.7969 Q175.3438,26.6406 175.7656,26.2031 Q176.0313,25.9375 176.1719,25.8594 Q176.3281,25.7813 176.5313,25.7813 Q176.8594,25.7813 177.1094,26.0469 Q177.375,26.2969 177.375,26.6406 Q177.375,26.9844 177.0313,27.3906 Q176.5313,27.9688 175.7344,28.2969 Q174.6563,28.75 173.3594,28.75 Q171.8438,28.75 170.6406,28.125 Q169.6563,27.625 168.9688,26.5625 Q168.2813,25.4844 168.2813,24.2031 L168.2813,23.0469 Q168.2813,21.7188 168.8906,20.5781 Q169.5156,19.4219 170.6094,18.8125 Q171.7031,18.1875 172.9375,18.1875 Q173.6719,18.1875 174.3125,18.3594 Q174.9688,18.5156 175.5156,18.875 Z " fill="#000000"/><text fill="#000000" font-family="sans-serif" font-size="14" lengthAdjust="spacing" textLength="25" x="193.25" y="28.7969">App</text><line style="stroke:#181818;stroke-width:0.5;" x1="104" x2="275" y1="39" y2="39"/><line style="stroke:#181818;stroke-width:0.5;" x1="104" x2="275" y1="47" y2="47"/><ellipse cx="114" cy="61.8105" fill="#84BE84" rx="3" ry="3" style="stroke:#038048;stroke-width:1.0;"/><text fill="#000000" font-family="sans-serif" font-size="14" lengthAdjust="spacing" text-decoration="underline" textLength="147" x="123" y="66.1074">main(args:String[]):void</text></g><!--class Game--><g id="elem_Game"><rect codeLine="9" fill="#F1F1F1" height="234.2109" id="Game" rx="2.5" ry="2.5" style="stroke:#181818;stroke-width:0.5;" width="365" x="7" y="195"/><ellipse cx="166.25" cy="211" fill="#ADD1B2" rx="11" ry="11" style="stroke:#181818;stroke-width:1.0;"/><path d="M169.0156,206.875 Q169.1719,206.6563 169.3594,206.5469 Q169.5469,206.4375 169.7656,206.4375 Q170.1406,206.4375 170.375,206.7031 Q170.6094,206.9531 170.6094,207.5625 L170.6094,209.0156 Q170.6094,209.625 170.375,209.8906 Q170.1406,210.1563 169.7656,210.1563 Q169.4219,210.1563 169.2188,209.9531 Q169.0156,209.7656 168.9063,209.25 Q168.8594,208.8906 168.6719,208.7031 Q168.3438,208.3281 167.7344,208.1094 Q167.125,207.8906 166.5,207.8906 Q165.7344,207.8906 165.0938,208.2188 Q164.4688,208.5469 163.9688,209.2969 Q163.4844,210.0469 163.4844,211.0781 L163.4844,212.1719 Q163.4844,213.4063 164.375,214.2344 Q165.2656,215.0469 166.8594,215.0469 Q167.7969,215.0469 168.4531,214.7969 Q168.8438,214.6406 169.2656,214.2031 Q169.5313,213.9375 169.6719,213.8594 Q169.8281,213.7813 170.0313,213.7813 Q170.3594,213.7813 170.6094,214.0469 Q170.875,214.2969 170.875,214.6406 Q170.875,214.9844 170.5313,215.3906 Q170.0313,215.9688 169.2344,216.2969 Q168.1563,216.75 166.8594,216.75 Q165.3438,216.75 164.1406,216.125 Q163.1563,215.625 162.4688,214.5625 Q161.7813,213.4844 161.7813,212.2031 L161.7813,211.0469 Q161.7813,209.7188 162.3906,208.5781 Q163.0156,207.4219 164.1094,206.8125 Q165.2031,206.1875 166.4375,206.1875 Q167.1719,206.1875 167.8125,206.3594 Q168.4688,206.5156 169.0156,206.875 Z " fill="#000000"/><text fill="#000000" font-family="sans-serif" font-size="14" lengthAdjust="spacing" textLength="38" x="186.75" y="216.7969">Game</text><line style="stroke:#181818;stroke-width:0.5;" x1="8" x2="371" y1="227" y2="227"/><rect fill="none" height="6" style="stroke:#C82930;stroke-width:1.0;" width="6" x="15" y="238.8105"/><text fill="#000000" font-family="sans-serif" font-size="14" lengthAdjust="spacing" textLength="71" x="27" y="246.1074">rolls: String</text><rect fill="none" height="6" style="stroke:#C82930;stroke-width:1.0;" width="6" x="15" y="257.4316"/><text fill="#000000" font-family="sans-serif" font-size="14" lengthAdjust="spacing" textLength="93" x="27" y="264.7285">strikeValue: int</text><rect fill="none" height="6" style="stroke:#C82930;stroke-width:1.0;" width="6" x="15" y="276.0527"/><text fill="#000000" font-family="sans-serif" font-size="14" lengthAdjust="spacing" textLength="99" x="27" y="283.3496">spareValue : int</text><line style="stroke:#181818;stroke-width:1.0;" x1="8" x2="371" y1="290.8633" y2="290.8633"/><ellipse cx="18" cy="305.6738" fill="#84BE84" rx="3" ry="3" style="stroke:#038048;stroke-width:1.0;"/><text fill="#000000" font-family="sans-serif" font-size="14" lengthAdjust="spacing" textLength="48" x="27" y="309.9707">Game()</text><ellipse cx="18" cy="324.2949" fill="#84BE84" rx="3" ry="3" style="stroke:#038048;stroke-width:1.0;"/><text fill="#000000" font-family="sans-serif" font-size="14" lengthAdjust="spacing" textLength="90" x="27" y="328.5918">getScore(): int</text><rect fill="#F24D5C" height="6" style="stroke:#C82930;stroke-width:1.0;" width="6" x="15" y="339.916"/><text fill="#000000" font-family="sans-serif" font-size="14" lengthAdjust="spacing" textLength="176" x="27" y="347.2129">pinsToNumber(roll:char): int</text><rect fill="#F24D5C" height="6" style="stroke:#C82930;stroke-width:1.0;" width="6" x="15" y="358.5371"/><text fill="#000000" font-family="sans-serif" font-size="14" lengthAdjust="spacing" textLength="339" x="27" y="365.834">spareBonus(rolls:char[], currentTurn:int, score:int): int</text><rect fill="#F24D5C" height="6" style="stroke:#C82930;stroke-width:1.0;" width="6" x="15" y="377.1582"/><text fill="#000000" font-family="sans-serif" font-size="14" lengthAdjust="spacing" textLength="337" x="27" y="384.4551">strikeBonus(rolls:char[], currentTurn:int, score:int): int</text><rect fill="#F24D5C" height="6" style="stroke:#C82930;stroke-width:1.0;" width="6" x="15" y="395.7793"/><text fill="#000000" font-family="sans-serif" font-size="14" lengthAdjust="spacing" textLength="326" x="27" y="403.0762">lastFrame(rolls:char[], currentTurn:int, score:int): int</text><text fill="#000000" font-family="sans-serif" font-size="14" lengthAdjust="spacing" textLength="4" x="27" y="421.6973">&#160;</text></g><!--link App to Game--><g id="link_App_Game"><path codeLine="3" d="M189.5,74.01 C189.5,104.18 189.5,144.93 189.5,188.97 " fill="none" id="App-to-Game" style="stroke:#181818;stroke-width:1.0;"/><polygon fill="#181818" points="189.5,194.97,193.5,185.97,189.5,189.97,185.5,185.97,189.5,194.97" style="stroke:#181818;stroke-width:1.0;"/></g><!--SRC=[fP0_JmCn3CNtV0fltAaDjsT0WW4sbbOiLGUJHjU8_CDEM4xttKdkMgc82P4byK_lFTkvE-USM0r3SXXoyUvUHp-m-ImcQ2DF5aT2ByHZIY2bV80Nz4O8xP0PAfp4n1cprVF6emqTqiXgbyc6yN3irLUq9p5VzSqx2QX70aNdMC4glJ2knOTvGrUC0Xlo5IUabS8DbikrMKAx_bAC9kzqf0fk0v8Dl8-lnRyRwbfZfSz8_QyUJp4KxjR9ck9mt88kH2RaVQ6WgdmBtFBRywT_6VqV0VM3yZErNVve5p1_0m00]--></g></svg>